<mxfile host="app.diagrams.net" modified="2023-09-24T07:31:07.813Z" agent="Mozilla/5.0 (Macintosh; Intel Mac OS X 10_15_7) AppleWebKit/605.1.15 (KHTML, like Gecko) Version/15.4 Safari/605.1.15" etag="alvMnP2dE23KMOp3tCWa" version="21.7.4" type="github">
  <diagram name="Page-1" id="g-eU_zQpK4Jmi0CYvKia">
    <mxGraphModel dx="1077" dy="622" grid="1" gridSize="10" guides="1" tooltips="1" connect="1" arrows="1" fold="1" page="1" pageScale="1" pageWidth="827" pageHeight="1169" math="0" shadow="0">
      <root>
        <mxCell id="0" />
        <mxCell id="1" parent="0" />
        <mxCell id="zGSTSEzs4RvEDAc3bm8E-2" value="" style="rounded=0;whiteSpace=wrap;html=1;" vertex="1" parent="1">
          <mxGeometry x="80" y="200" width="160" height="80" as="geometry" />
        </mxCell>
        <mxCell id="zGSTSEzs4RvEDAc3bm8E-3" value="SERVICE PROVIDER DASHBOARD" style="rounded=0;whiteSpace=wrap;html=1;" vertex="1" parent="1">
          <mxGeometry x="160" y="240" width="120" height="60" as="geometry" />
        </mxCell>
        <mxCell id="zGSTSEzs4RvEDAc3bm8E-4" value="USER &lt;br&gt;DASHBOARD" style="rounded=0;whiteSpace=wrap;html=1;" vertex="1" parent="1">
          <mxGeometry x="160" y="160" width="120" height="60" as="geometry" />
        </mxCell>
        <mxCell id="zGSTSEzs4RvEDAc3bm8E-5" value="LOGIN / SIGNUP" style="rounded=0;whiteSpace=wrap;html=1;" vertex="1" parent="1">
          <mxGeometry x="200" y="40" width="80" height="60" as="geometry" />
        </mxCell>
        <mxCell id="zGSTSEzs4RvEDAc3bm8E-6" value="&lt;font style=&quot;font-size: 10px;&quot;&gt;KYC REGISTRATION&lt;/font&gt;" style="rounded=0;whiteSpace=wrap;html=1;" vertex="1" parent="1">
          <mxGeometry x="200" y="360" width="80" height="60" as="geometry" />
        </mxCell>
        <mxCell id="zGSTSEzs4RvEDAc3bm8E-7" value="&lt;font style=&quot;font-size: 10px;&quot;&gt;ADVOCATES&lt;br&gt;ARBITATORS&lt;br&gt;MEDIATATORS&lt;br&gt;DOCUMENT WRITERS&lt;br&gt;&lt;br&gt;JUDGE&amp;nbsp;&lt;/font&gt;" style="rounded=0;whiteSpace=wrap;html=1;" vertex="1" parent="1">
          <mxGeometry x="340" y="320" width="70" height="120" as="geometry" />
        </mxCell>
        <mxCell id="zGSTSEzs4RvEDAc3bm8E-8" value="USER" style="rounded=0;whiteSpace=wrap;html=1;" vertex="1" parent="1">
          <mxGeometry x="350" y="40" width="40" height="40" as="geometry" />
        </mxCell>
        <mxCell id="zGSTSEzs4RvEDAc3bm8E-9" value="" style="ellipse;whiteSpace=wrap;html=1;aspect=fixed;" vertex="1" parent="1">
          <mxGeometry x="355" y="280" width="40" height="40" as="geometry" />
        </mxCell>
        <mxCell id="zGSTSEzs4RvEDAc3bm8E-10" value="" style="ellipse;whiteSpace=wrap;html=1;aspect=fixed;" vertex="1" parent="1">
          <mxGeometry x="355" y="10" width="30" height="30" as="geometry" />
        </mxCell>
        <mxCell id="zGSTSEzs4RvEDAc3bm8E-12" value="" style="rounded=1;whiteSpace=wrap;html=1;" vertex="1" parent="1">
          <mxGeometry x="440" y="160" width="120" height="60" as="geometry" />
        </mxCell>
        <mxCell id="zGSTSEzs4RvEDAc3bm8E-13" value="" style="rhombus;whiteSpace=wrap;html=1;" vertex="1" parent="1">
          <mxGeometry x="600" y="80" width="80" height="80" as="geometry" />
        </mxCell>
        <mxCell id="zGSTSEzs4RvEDAc3bm8E-16" value="" style="rounded=0;whiteSpace=wrap;html=1;" vertex="1" parent="1">
          <mxGeometry x="600" y="200" width="80" height="80" as="geometry" />
        </mxCell>
        <mxCell id="zGSTSEzs4RvEDAc3bm8E-17" value="" style="rounded=0;whiteSpace=wrap;html=1;" vertex="1" parent="1">
          <mxGeometry x="600" y="320" width="80" height="80" as="geometry" />
        </mxCell>
        <mxCell id="zGSTSEzs4RvEDAc3bm8E-18" value="" style="rhombus;whiteSpace=wrap;html=1;" vertex="1" parent="1">
          <mxGeometry x="600" y="440" width="80" height="80" as="geometry" />
        </mxCell>
        <mxCell id="zGSTSEzs4RvEDAc3bm8E-19" value="" style="rhombus;whiteSpace=wrap;html=1;" vertex="1" parent="1">
          <mxGeometry x="600" y="560" width="80" height="80" as="geometry" />
        </mxCell>
        <mxCell id="zGSTSEzs4RvEDAc3bm8E-20" value="" style="rhombus;whiteSpace=wrap;html=1;" vertex="1" parent="1">
          <mxGeometry x="400" y="550" width="80" height="80" as="geometry" />
        </mxCell>
        <mxCell id="zGSTSEzs4RvEDAc3bm8E-21" value="" style="rounded=1;whiteSpace=wrap;html=1;" vertex="1" parent="1">
          <mxGeometry x="737" y="280" width="90" height="60" as="geometry" />
        </mxCell>
        <mxCell id="zGSTSEzs4RvEDAc3bm8E-22" value="" style="endArrow=none;html=1;rounded=0;entryX=1;entryY=0.75;entryDx=0;entryDy=0;exitX=0;exitY=0.75;exitDx=0;exitDy=0;" edge="1" parent="1" source="zGSTSEzs4RvEDAc3bm8E-7" target="zGSTSEzs4RvEDAc3bm8E-7">
          <mxGeometry width="50" height="50" relative="1" as="geometry">
            <mxPoint x="370" y="320" as="sourcePoint" />
            <mxPoint x="420" y="270" as="targetPoint" />
          </mxGeometry>
        </mxCell>
      </root>
    </mxGraphModel>
  </diagram>
</mxfile>
